<?xml version="1.0" standalone="no"?>
<!DOCTYPE svg PUBLIC "-//W3C//DTD SVG 20010904//EN"
 "http://www.w3.org/TR/2001/REC-SVG-20010904/DTD/svg10.dtd">
<svg version="1.0" xmlns="http://www.w3.org/2000/svg"
 width="334.000000pt" height="334.000000pt" viewBox="0 0 334.000000 334.000000"
 preserveAspectRatio="xMidYMid meet">
<metadata>
Created by potrace 1.11, written by Peter Selinger 2001-2013
</metadata>
<g transform="translate(0.000000,334.000000) scale(0.100000,-0.100000)"
fill="#000000" stroke="none">
<path d="M827 2656 c-10 -24 16 -35 88 -38 l70 -3 0 -935 0 -935 -70 -3 c-76
-3 -96 -13 -88 -42 5 -19 16 -20 348 -20 l343 0 7 47 c10 67 14 69 46 30 104
-127 456 -139 672 -24 132 70 210 185 247 367 19 90 21 126 17 255 -3 85 -12
177 -21 213 -52 208 -174 341 -352 385 -157 40 -304 29 -416 -30 -61 -32 -138
-102 -138 -125 0 -4 -4 -8 -10 -8 -7 0 -10 153 -10 440 l0 440 -364 0 c-306 0
-365 -2 -369 -14z m996 -812 c18 -9 41 -30 50 -48 38 -74 42 -112 41 -471 0
-365 -6 -433 -49 -516 -32 -61 -106 -84 -176 -55 -44 19 -73 50 -101 111 -22
48 -23 60 -26 377 -3 346 2 398 48 487 31 60 117 130 162 131 10 0 32 -7 51
-16z"/>
</g>
</svg>
